<svg version="1.1" id="Capa_1" xmlns="http://www.w3.org/2000/svg" xmlns:xlink="http://www.w3.org/1999/xlink" x="0px" y="0px"
	 width="415px" height="545px" viewBox="64.138 -0.862 415 545" enable-background="new 64.138 -0.862 415 545"
	 xml:space="preserve">
<path fill="#ffffff" d="M479,265.166c0,57.977-25.452,112.68-69.818,150.09l-38.538-45.728c30.854-26.013,48.551-64.055,48.551-104.362
	c0-72.504-56.885-131.795-128.352-136.01H261.59l24.636,62.368c0.828,2.086,0.154,4.472-1.643,5.822
	c-1.791,1.356-4.269,1.351-6.054-0.024l-122.497-94.185c-1.229-0.952-1.954-2.403-1.954-3.966c0-1.554,0.724-3.021,1.954-3.963
	l122.51-94.181C279.434,0.337,280.504,0,281.58,0c1.062,0,2.122,0.331,3.015,1.005c1.797,1.348,2.465,3.742,1.643,5.828
	l-24.636,62.357l21.186,0.062v-0.316c7.57,0,15.043,0.479,22.396,1.321c4.877,0.508,10.32,1.229,14.452,2.202
	C410.257,89.761,479,169.562,479,265.166z M264.737,345.956c-1.778-1.377-4.262-1.383-6.053-0.022
	c-1.791,1.354-2.461,3.736-1.64,5.828l24.636,62.365h-29.252c-71.452-4.222-128.346-63.519-128.346-136.015
	c0-37.728,15.058-72.832,42.397-98.845l-41.23-43.326C85.93,173.36,64.276,223.844,64.276,278.113
	c0,95.597,68.733,175.402,159.375,192.703c4.141,0.97,9.581,1.69,14.455,2.199c7.354,0.845,14.818,1.324,22.396,1.324v-0.319
	l21.184,0.064l-24.636,62.357c-0.827,2.099-0.15,4.486,1.64,5.828c0.896,0.674,1.951,1.005,3.016,1.005
	c1.079,0,2.143-0.337,3.044-1.028l122.492-94.188c1.229-0.94,1.956-2.406,1.956-3.961c0-1.562-0.728-3.014-1.956-3.96
	L264.737,345.956z"/>
</svg>
