<svg version="1.1" id="Layer_1" xmlns="http://www.w3.org/2000/svg" xmlns:xlink="http://www.w3.org/1999/xlink" x="0px" y="0px"
	 width="405px" height="513px" viewBox="63.5 -0.5 405 513" enable-background="new 63.5 -0.5 405 513" xml:space="preserve">
<path fill="#ffffff" d="M446.141,362.594c0.852-10.12,21.951-23.983,21.934-34.12c-0.049-10.644-18.481-28.455-17.086-39.008
	c1.104-8.369,16.556-20.793,17.06-29.244c0.897-15.354-19.853-45.4-34.119-51.175c-22.644-9.168-137.705-4.883-137.705-4.883
	c-11.246-19.652,20.035-68.201,28.639-89.162c12.632-30.719,10.505-71.466-5.471-92.398C299.879-2.98,264.063-4.68,263.325,6.762
	c-5.337,83.01-21.229,106.053-42.506,122.454c-12.785,9.863-23.953,18.497-29.854,33.528
	c-36.261,92.354-65.521,122.037-79.528,125.254H64v198.886l145.721,19.501c0,0,133.455,12.632,175.482,0
	c13.223-3.966,36.038-23.818,41.432-36.557c3.074-7.314-1.197-24.622,2.442-31.677c5.371-10.458,28.052-23.559,28.027-37.771
	C457.081,390.246,445.276,372.702,446.141,362.594z"/>
</svg>
