<svg version="1.1" xmlns="http://www.w3.org/2000/svg" xmlns:xlink="http://www.w3.org/1999/xlink" x="0px" y="0px"
	 width="513px" height="398px" viewBox="-0.5 63.5 513 398" xml:space="preserve">
<path fill="#128fdc" d="M445.502,180.03C443.881,115.681,391.273,64,326.571,64c-37.896,0-71.633,17.747-93.427,45.366
	c-12.221-15.799-31.345-25.979-52.854-25.979c-36.905,0-66.821,29.937-66.821,66.86c0,3.218,0.24,6.38,0.682,9.478
	c-5.61-1.013-11.383-1.569-17.284-1.569C43.367,158.154,0,201.548,0,255.076C0,308.607,43.367,352,96.865,352h49.88L256,461.256
	L365.255,352h59.74v-0.006C473.065,351.902,512,312.888,512,264.771C512,223.726,483.66,189.321,445.502,180.03z M256,416l-96-96h64
	v-96h64v96h64L256,416z"/>
</svg>
